<svg xmlns="http://www.w3.org/2000/svg" width="33.306" height="38.439" viewBox="0 0 33.306 38.439">
  <path id="Path_77" data-name="Path 77" d="M152.576,38.493a.535.535,0,0,0,.526-.526V34.774a.535.535,0,0,0-.526-.526h-3.355V14.524A.535.535,0,0,0,148.7,14H124.242a.535.535,0,0,0-.526.526V34.248h-3.355a.535.535,0,0,0-.526.526v3.193a.535.535,0,0,0,.526.526h3.355v9.7h-3.355a.535.535,0,0,0-.526.526v3.193a.535.535,0,0,0,.526.526h32.254a.535.535,0,0,0,.526-.526V48.719a.535.535,0,0,0-.526-.526h-3.355v-9.7ZM124.768,15.049h23.4v19.2h-1.617V17.192a.545.545,0,0,0-.526-.566H126.87a.545.545,0,0,0-.526.566V34.248h-1.576Zm4.325,14.268c.97.283,1.253,2.708,1.132,4.931H127.4V29.317Zm-1.7-1.051V17.717h5.093c-.566,7.275-2.344,10.307-3.355,10.549Zm2.83.606c1.091-.849,1.94-2.829,2.587-5.982a45.984,45.984,0,0,0,.727-5.174h2.385V34.249h-4.608c.2-3.193-.445-4.688-1.091-5.376Zm15.278-.606h-1.738c-1.01-.242-2.789-3.274-3.355-10.549H145.5Zm-2.83.606c-.606.687-1.253,2.223-1.091,5.376h-4.607V17.717h2.385a47.424,47.424,0,0,0,.727,5.174c.647,3.153,1.5,5.133,2.587,5.982Zm0,5.376c-.121-2.223.121-4.648,1.132-4.931h1.7v4.931ZM120.847,35.3h31.2v2.1h-31.2Zm18.431,12.853v-9.7h4.284v9.7Zm-5.659-9.66v9.7h-4.284v-9.7Zm1.051,0h3.516v9.7H134.67Zm-9.9,0h3.516v9.7h-3.516Zm27.283,12.853h-31.2v-2.1h31.2Zm-3.921-3.193h-3.516v-9.7h3.516Z" transform="translate(-119.836 -13.998)" fill="#10252a"/>
</svg>
