<svg xmlns="http://www.w3.org/2000/svg" width="27.61" height="27.611" viewBox="0 0 27.61 27.611">
  <path id="Path_106" data-name="Path 106" d="M105.662,8.484h-1.726a.432.432,0,0,0-.431.431v7.766h-1.294v-.863a2.157,2.157,0,0,0-2.157-2.157h-15.1V13.23a1.295,1.295,0,0,0-1.294-1.294H81.071V8.916a.431.431,0,0,0-.431-.431H78.914a.432.432,0,0,0-.431.431V35.664a.431.431,0,0,0,.431.431H80.64a.431.431,0,0,0,.431-.431V31.781H103.5v3.883a.431.431,0,0,0,.431.431h1.726a.431.431,0,0,0,.431-.431V8.916a.431.431,0,0,0-.431-.431ZM81.071,28.761V26.6h18.982a1.295,1.295,0,0,1,1.294,1.294v.863ZM98.759,19.7v.863H94.014V19.7Zm-4.746,6.04v-.863h4.746v.863Zm0-2.589h4.746v.863H94.014Zm4.745-.863H94.014v-.863h4.746Zm-5.608,3.451h-8.2V25.31a1.295,1.295,0,0,0-1.294-1.294H81.071V19.7H93.151Zm-12.079,0v-.863H83.66a.432.432,0,0,1,.431.431v.431Zm18.982,0h-.431V19.7H103.5v9.06h-1.294V27.9a2.157,2.157,0,0,0-2.157-2.157Zm3.451-6.9H81.071V17.544H103.5Zm-2.157-3.02v.863H81.071V14.524h18.982a1.294,1.294,0,0,1,1.294,1.294ZM83.66,12.8a.432.432,0,0,1,.431.431v.431h-3.02V12.8ZM80.208,35.232h-.863V9.347h.863Zm.863-4.314V29.624H103.5v1.294Zm24.159,4.314h-.863V9.347h.863Z" transform="translate(-78.483 -8.484)" fill="#10252a"/>
</svg>
