<svg xmlns="http://www.w3.org/2000/svg" width="34.605" height="38.235" viewBox="0 0 34.605 38.235">
  <g id="Group_135" data-name="Group 135" transform="translate(-195.095 -2363)">
    <path id="Path_101" data-name="Path 101" d="M123.145,67.109H156.9a.426.426,0,0,0,.426-.426V64.855a.426.426,0,0,0-.426-.426h-1.974V33H156.9a.426.426,0,0,0,.426-.426V29.3a.426.426,0,0,0-.426-.426H123.145a.426.426,0,0,0-.426.426V32.57a.426.426,0,0,0,.426.426h1.974V64.429h-1.974a.426.426,0,0,0-.426.426v1.828A.426.426,0,0,0,123.145,67.109Zm.426-34.965V29.727h32.9v2.416Zm25.808,28.423V57.8h4.692v2.77Zm4.692.853v3.009h-4.692V61.419Zm-4.692-4.475V54.169h4.692v2.775Zm0-3.627V50.542h4.692v2.775Zm0-3.627a9.313,9.313,0,0,0-.475-2.775h5.172v2.775Zm-.807-3.627a9.4,9.4,0,0,0-1.9-2.775h7.4v2.775Zm-2.1,14.263a20.048,20.048,0,0,0-2.579-4.651c-1.058-1.552-1.972-2.893-1.9-4.059a.426.426,0,0,0-.678-.368,9.469,9.469,0,0,0-3.609,7.975c-.5-.116-1.362-.614-1.988-2.59a.426.426,0,0,0-.749-.125c-.092.124-2.241,3.066-1.558,5.761a4.064,4.064,0,0,0,1.4,2.161h-3.29V49.867a8.506,8.506,0,1,1,17.011,0V64.429h-2.5a4.4,4.4,0,0,0,.446-4.1Zm-5.258-7.857a11.739,11.739,0,0,0,1.975,3.687,19.39,19.39,0,0,1,2.478,4.449,3.573,3.573,0,0,1-.731,3.824h-8.543a3.686,3.686,0,0,1-2.159-2.368,6.342,6.342,0,0,1,.972-4.347c1.189,2.758,2.982,2.383,3.065,2.364a.426.426,0,0,0,.327-.47,8.533,8.533,0,0,1,2.616-7.14Zm-15.238,8.1V57.8h4.692v2.77Zm4.692.853v3.009h-4.692V61.42Zm-4.692-4.475V54.17h4.692v2.775Zm0-3.627V50.543h4.692v2.775Zm0-3.627V46.915h5.171a9.313,9.313,0,0,0-.475,2.775Zm0-3.627V43.288h7.4a9.392,9.392,0,0,0-1.9,2.775ZM145.7,42.435a9.331,9.331,0,0,0-11.357,0h-8.372V39.66h28.1v2.775Zm-19.728-3.628v-2.77h28.1v2.77Zm0-3.623V33h28.1v2.187Zm-2.4,30.1h1.964l.01,0,.01,0h28.932l.01,0,.01,0h1.964v.975h-32.9Z" transform="translate(72.377 2334.125)" fill="#10252a"/>
    <path id="Path_102" data-name="Path 102" d="M298.166,254.7a.427.427,0,0,0-.574.184,8.037,8.037,0,0,0-.718,3.589,7.264,7.264,0,0,1-.624,3.231.426.426,0,1,0,.758.39,8.038,8.038,0,0,0,.718-3.589,7.267,7.267,0,0,1,.624-3.231.426.426,0,0,0-.184-.574Z" transform="translate(-87.901 2125.536)" fill="#10252a"/>
    <path id="Path_103" data-name="Path 103" d="M334.916,217.947a.427.427,0,0,0-.574.184,8.043,8.043,0,0,0-.718,3.589,7.26,7.26,0,0,1-.624,3.231.426.426,0,1,0,.758.39,8.043,8.043,0,0,0,.718-3.589,7.26,7.26,0,0,1,.624-3.231A.426.426,0,0,0,334.916,217.947Z" transform="translate(-121.853 2159.49)" fill="#10252a"/>
    <path id="Path_104" data-name="Path 104" d="M376.936,212.759a.427.427,0,0,0-.574.184,8.039,8.039,0,0,0-.718,3.589,7.268,7.268,0,0,1-.624,3.231.426.426,0,1,0,.758.39,8.039,8.039,0,0,0,.718-3.589,7.264,7.264,0,0,1,.624-3.231A.426.426,0,0,0,376.936,212.759Z" transform="translate(-160.674 2164.283)" fill="#10252a"/>
  </g>
</svg>
