<svg xmlns="http://www.w3.org/2000/svg" width="39.285" height="34.694" viewBox="0 0 39.285 34.694">
  <g id="noun-hot-tub-4759236" transform="translate(-98.424 -57.832)">
    <path id="Path_86" data-name="Path 86" d="M148.934,256.162h-19.24a8.233,8.233,0,0,1-8.224-8.223v-7.711a.512.512,0,0,1,1.025,0v7.711a7.207,7.207,0,0,0,7.2,7.2h19.241a7.206,7.206,0,0,0,7.2-7.2v-7.711a.512.512,0,1,1,1.025,0v7.711a8.233,8.233,0,0,1-8.223,8.223Z" transform="translate(-21.247 -167.682)" fill="#10252a" fill-rule="evenodd"/>
    <path id="Path_87" data-name="Path 87" d="M169.192,439.749h-3.107a.512.512,0,0,1-.443-.769l2.46-4.262a.512.512,0,0,1,.888.512l-2.017,3.493H168.9l2.188-3.79a.512.512,0,0,1,.888.513l-2.336,4.046a.513.513,0,0,1-.444.256Z" transform="translate(-61.906 -347.223)" fill="#10252a" fill-rule="evenodd"/>
    <path id="Path_88" data-name="Path 88" d="M457.555,439.749h-3.106a.513.513,0,0,1-.444-.256l-2.336-4.046a.512.512,0,0,1,.888-.512l2.188,3.79h1.924l-2.017-3.493a.512.512,0,1,1,.887-.512L458,438.98a.512.512,0,0,1-.444.769Z" transform="translate(-325.6 -347.224)" fill="#10252a" fill-rule="evenodd"/>
    <path id="Path_89" data-name="Path 89" d="M273.522,290.837h10.055v-3.328H273.522Zm10.567,1.025H273.01a.512.512,0,0,1-.512-.512V287a.512.512,0,0,1,.512-.512h11.08a.512.512,0,0,1,.512.512v4.353a.513.513,0,0,1-.512.512Z" transform="translate(-160.482 -210.799)" fill="#10252a" fill-rule="evenodd"/>
    <path id="Path_90" data-name="Path 90" d="M271.884,368.173a.4.4,0,0,0,0,.8h2.454a.4.4,0,1,0,0-.8h-2.453Zm2.453,1.82h-2.453a1.422,1.422,0,1,1,0-2.845h2.454a1.423,1.423,0,0,1,0,2.845h0Z" transform="translate(-158.604 -285.165)" fill="#10252a" fill-rule="evenodd"/>
    <path id="Path_91" data-name="Path 91" d="M363.114,368.173a.4.4,0,0,0,0,.8h2.453a.4.4,0,0,0,0-.8h-2.453Zm2.453,1.82h-2.453a1.422,1.422,0,1,1,0-2.845h2.453a1.422,1.422,0,0,1,0,2.845Z" transform="translate(-242.711 -285.165)" fill="#10252a" fill-rule="evenodd"/>
    <path id="Path_92" data-name="Path 92" d="M100.317,205.381a.868.868,0,1,0,0,1.735h35.5a.868.868,0,0,0,0-1.735Zm35.5,2.76h-35.5a1.892,1.892,0,1,1,0-3.785h35.5a1.892,1.892,0,0,1,0,3.785Z" transform="translate(0 -135.084)" fill="#10252a" fill-rule="evenodd"/>
    <path id="Path_93" data-name="Path 93" d="M501.617,73.964a.512.512,0,0,1-.512-.512v-8.18a2.438,2.438,0,1,0-4.876,0,.512.512,0,1,1-1.025,0,3.463,3.463,0,1,1,6.926,0v8.18a.513.513,0,0,1-.512.512Z" transform="translate(-365.799 -3.667)" fill="#10252a" fill-rule="evenodd"/>
    <path id="Path_94" data-name="Path 94" d="M462.4,102.242h4.144a2.134,2.134,0,0,0-4.144,0Zm4.718,1.024h-5.293a.513.513,0,0,1-.513-.512,3.159,3.159,0,1,1,6.318,0,.512.512,0,0,1-.512.512Z" transform="translate(-334.553 -38.503)" fill="#10252a" fill-rule="evenodd"/>
    <path id="Path_95" data-name="Path 95" d="M475.956,155.793a.513.513,0,0,1-.513-.512v-1.4a.512.512,0,1,1,1.024,0v1.4a.513.513,0,0,1-.513.512Z" transform="translate(-347.582 -88.072)" fill="#10252a" fill-rule="evenodd"/>
    <path id="Path_96" data-name="Path 96" d="M495.72,155.793a.512.512,0,0,1-.512-.512v-1.4a.512.512,0,1,1,1.025,0v1.4A.513.513,0,0,1,495.72,155.793Z" transform="translate(-365.803 -88.072)" fill="#10252a" fill-rule="evenodd"/>
    <path id="Path_97" data-name="Path 97" d="M515.486,155.793a.512.512,0,0,1-.513-.512v-1.4a.512.512,0,1,1,1.024,0v1.4A.513.513,0,0,1,515.486,155.793Z" transform="translate(-384.026 -88.072)" fill="#10252a" fill-rule="evenodd"/>
    <path id="Path_98" data-name="Path 98" d="M379.093,67.724a.509.509,0,0,1-.262-.072c-1.225-.732-1.862-1.484-1.943-2.3-.115-1.16.89-2.071,1.861-2.952.784-.711,1.594-1.445,1.529-2.092-.045-.463-.533-.974-1.447-1.52a.512.512,0,1,1,.525-.88c1.226.732,1.861,1.484,1.943,2.3.115,1.16-.89,2.072-1.861,2.952-.783.711-1.594,1.445-1.53,2.092.046.463.534.974,1.448,1.52a.513.513,0,0,1-.263.953Z" transform="translate(-256.714 -0.004)" fill="#10252a" fill-rule="evenodd"/>
    <path id="Path_99" data-name="Path 99" d="M323.863,67.72a.511.511,0,0,1-.263-.072c-1.226-.732-1.861-1.484-1.942-2.3-.116-1.16.889-2.072,1.86-2.953.784-.711,1.594-1.445,1.53-2.092-.046-.463-.534-.974-1.448-1.52a.513.513,0,0,1,.526-.88c1.226.732,1.861,1.484,1.942,2.3.116,1.16-.89,2.072-1.861,2.953-.784.711-1.593,1.445-1.529,2.092.046.463.533.974,1.448,1.52a.513.513,0,0,1-.263.952Z" transform="translate(-205.796 0)" fill="#10252a" fill-rule="evenodd"/>
    <path id="Path_100" data-name="Path 100" d="M268.613,67.72a.509.509,0,0,1-.262-.072c-1.226-.732-1.862-1.484-1.943-2.3-.115-1.16.89-2.072,1.861-2.953.784-.711,1.594-1.445,1.529-2.092-.046-.463-.533-.974-1.447-1.52a.512.512,0,1,1,.525-.88c1.226.732,1.861,1.484,1.943,2.3.115,1.16-.89,2.072-1.861,2.953-.784.711-1.594,1.445-1.53,2.092.046.463.534.974,1.448,1.52a.513.513,0,0,1-.263.952Z" transform="translate(-154.86 0)" fill="#10252a" fill-rule="evenodd"/>
  </g>
</svg>
