<svg xmlns="http://www.w3.org/2000/svg" width="34.605" height="26.673" viewBox="0 0 34.605 26.673">
  <path id="Path_105" data-name="Path 105" d="M109.3,72.844v2.184h.728V72.844ZM105.553,74.4l-.511.511,1.533,1.546.524-.524Zm8.227,0-1.546,1.533.524.524,1.533-1.546Zm-4.113,1.354a3.283,3.283,0,1,0,3.27,3.283A3.288,3.288,0,0,0,109.667,75.757Zm0,.728a2.555,2.555,0,1,1-2.542,2.555A2.543,2.543,0,0,1,109.667,76.485Zm-6.183,2.2v.728h2.184v-.728Zm10.181,0v.728h2.184v-.728Zm-7.089,2.938-1.533,1.546.511.524,1.546-1.558Zm6.183,0-.524.511,1.546,1.558.511-.524ZM109.3,83.064v2.184h.728V83.064ZM81.244,88.2a.37.37,0,0,0,.4.332h33.482a.364.364,0,1,0,0-.728H81.64A.39.39,0,0,0,81.244,88.2Zm22.125,2.3c-1.022-.051-2.006.677-2.657,2.044H92.92a.37.37,0,0,0,0,.741h8.009a.382.382,0,0,0,.345-.23c.575-1.38,1.354-1.865,2.057-1.827s1.495.639,2.006,1.84a.363.363,0,1,0,.652-.307,3.26,3.26,0,0,0-2.619-2.261Zm4.8,1.712a.39.39,0,0,0,.409.332h6.54a.368.368,0,0,0,.37-.358.388.388,0,0,0-.37-.37h-6.54a.409.409,0,0,0-.409.4Zm-26.929.741a.4.4,0,0,0,.4.332h8.738a.37.37,0,0,0,0-.741H81.64C81.384,92.542,81.282,92.708,81.244,92.951Zm0,2.555a.379.379,0,0,0,.4.332h33.482a.37.37,0,1,0,0-.741H81.64a.436.436,0,0,0-.4.409Zm7.2,1.188c-1.022-.051-2.006.677-2.657,2.057H81.64a.388.388,0,0,0-.37.37.377.377,0,0,0,.37.358h4.369a.376.376,0,0,0,.345-.23c.575-1.367,1.341-1.852,2.057-1.814s1.495.639,2.006,1.827a.369.369,0,0,0,.485.23.375.375,0,0,0,.166-.524,3.277,3.277,0,0,0-2.619-2.274Zm4.075,1.725a.388.388,0,0,0,.4.332h9.837a.364.364,0,0,0,0-.728H92.92a.416.416,0,0,0-.4.4Zm12.008,0a.4.4,0,0,0,.409.332h10.181a.364.364,0,1,0,0-.728H104.94a.409.409,0,0,0-.409.4Z" transform="translate(-81.244 -72.844)" fill="#10252a"/>
</svg>
