<svg xmlns="http://www.w3.org/2000/svg" width="33.305" height="29.128" viewBox="0 0 33.305 29.128">
  <g id="Group_134" data-name="Group 134" transform="translate(-525.497 -2208)">
    <path id="Path_78" data-name="Path 78" d="M162.893,90.215h-29.57a.322.322,0,0,0-.322.322v25.394a3.438,3.438,0,0,0,3.412,3.412h29.57a.322.322,0,0,0,.322-.322V93.627a3.438,3.438,0,0,0-3.412-3.412Zm-29.248,25.716V90.86h15.685V118.7H136.413a2.772,2.772,0,0,1-2.768-2.767Zm32.015,2.767H149.975V90.86h12.918a2.772,2.772,0,0,1,2.768,2.767Z" transform="translate(392.496 2117.785)" fill="#10252a"/>
    <path id="Path_79" data-name="Path 79" d="M363.933,241.3h.494a.346.346,0,0,1,.322.322v3.627a.322.322,0,0,1-.322.322h-.494a.346.346,0,0,1-.322-.322v-3.627A.322.322,0,0,1,363.933,241.3Z" transform="translate(179.583 1978.294)" fill="#10252a"/>
    <path id="Path_80" data-name="Path 80" d="M321.933,241.3h.494a.346.346,0,0,1,.322.322v3.627a.322.322,0,0,1-.322.322h-.494a.346.346,0,0,1-.322-.322v-3.627A.322.322,0,0,1,321.933,241.3Z" transform="translate(218.36 1978.294)" fill="#10252a"/>
    <path id="Path_81" data-name="Path 81" d="M318.076,304.919a.894.894,0,1,0,.894.894.894.894,0,0,0-.894-.894Zm0,1.47h0a.572.572,0,1,1,.572-.571.572.572,0,0,1-.572.571Z" transform="translate(222.449 1919.557)" fill="#10252a"/>
    <path id="Path_82" data-name="Path 82" d="M324.014,314.5h-.576a.163.163,0,0,0,0,.322h.572a.161.161,0,1,0,0-.322Z" transform="translate(216.799 1910.711)" fill="#10252a"/>
    <path id="Path_83" data-name="Path 83" d="M415.748,135.97H410.08a.322.322,0,0,0-.322.322v7.043a2.045,2.045,0,0,0,2.041,2.041h5.668a.322.322,0,0,0,.322-.322V138a2.045,2.045,0,0,0-2.041-2.028Zm1.4,8.762H411.8a1.4,1.4,0,0,1-1.4-1.4v-6.721h5.346a1.4,1.4,0,0,1,1.4,1.384Z" transform="translate(136.977 2075.542)" fill="#10252a"/>
  </g>
</svg>
